<?xml version="1.0"?>
<svg version="1.1" xmlns="http://www.w3.org/2000/svg" width="400px" height="200px" style="border: dashed 2px #aaa"><path fill="#0586e3" d="M3.076171875,103.076171875q0-1.904296875,0.1220703125-5.5908203125t0.3662109375-7.6904296875t0.634765625-7.4951171875t1.123046875-5.0048828125q0.390625-0.78125,1.1962890625-1.0498046875t1.5869140625-0.2685546875q0.48828125,0,1.6357421875,0.2685546875t1.1474609375,1.0498046875q0,1.220703125-0.29296875,4.6142578125t-0.537109375,7.7880859375t-0.341796875,9.130859375l0,2.099609375q0,3.564453125,0.244140625,6.689453125q0.341796875,4.00390625,1.2939453125,6.591796875t2.8564453125,2.587890625q2.587890625,0,4.833984375-1.5380859375t4.1015625-4.00390625t3.3447265625-5.517578125t2.5390625-6.005859375t1.7578125-5.4443359375t1.0009765625-3.90625q0.29296875-1.611328125,0.5126953125-4.296875t0.7080078125-5.2734375t1.7333984375-4.4921875t3.6376953125-1.904296875q1.416015625,0,2.7099609375,0.48828125t1.6845703125,2.099609375q-0.78125,2.978515625-1.318359375,8.2763671875t-0.8544921875,11.1083984375t-0.4638671875,11.2548828125t-0.146484375,8.8623046875q0,3.80859375,0.09765625,9.3017578125t0.341796875,11.3525390625t0.5615234375,11.4013671875t0.7080078125,9.2529296875q0.390625,0.78125,0.390625,1.806640625q0,1.220703125-0.48828125,1.904296875t-1.3427734375,1.025390625t-1.85546875,0.439453125t-1.9287109375,0.09765625q-1.416015625,0-3.1494140625-0.48828125t-2.1240234375-2.001953125q-0.48828125-1.806640625-0.8056640625-4.7607421875t-0.4638671875-6.4453125t-0.244140625-7.2998046875t-0.09765625-7.2998046875t0.048828125-6.494140625t0.048828125-4.9072265625q0-3.7109375,0.146484375-7.2998046875t0.341796875-7.2998046875q-1.220703125,2.490234375-2.8564453125,5.0537109375t-3.7353515625,4.6630859375t-4.6875,3.4423828125t-5.615234375,1.3427734375q-3.90625,0-5.95703125-2.099609375t-2.978515625-5.2001953125t-1.0498046875-6.591796875t-0.1220703125-6.3232421875z M52.66943359375,130.615234375q0-4.4921875,1.0498046875-8.8134765625t1.7822265625-8.6181640625q0.1953125-1.123046875,1.5380859375-1.3916015625t2.2705078125-0.2685546875q1.611328125,0,2.587890625,0.48828125q0.390625,0.1953125,0.732421875,0.439453125t0.341796875,0.634765625q0,4.19921875-1.0009765625,8.203125t-1.0009765625,8.49609375q0,1.513671875,0.2197265625,2.8564453125t0.4150390625,2.6611328125l0.29296875,1.416015625q0,0.390625,0.048828125,0.68359375t0.146484375,0.68359375q0,0.87890625-1.2451171875,1.1962890625t-2.1728515625,0.3173828125q-1.416015625,0-2.6123046875-0.5615234375t-1.8798828125-1.9287109375l-0.68359375-1.416015625q-0.5859375-1.123046875-0.5859375-2.5146484375t-0.244140625-2.5634765625z M55.79443359375,101.220703125l0-0.927734375q0-2.294921875,1.1474609375-4.1015625t3.4423828125-1.806640625q0.29296875,0,0.5615234375,0.048828125t0.5615234375,0.048828125q0.5859375,0.09765625,1.5380859375,0.4638671875t0.9521484375,1.1474609375l0,0.09765625q-0.1953125,0.390625-0.244140625,0.8056640625t-0.244140625,0.7080078125l0.09765625-0.09765625q-0.5859375,1.513671875-0.9521484375,2.44140625t-0.8056640625,1.4892578125t-1.0986328125,0.8056640625t-1.8798828125,0.244140625q-0.1953125,0-0.68359375-0.048828125t-1.0498046875-0.1953125t-0.9521484375-0.390625t-0.390625-0.732421875z M73.9912109375,114.111328125q0-2.294921875,0.9033203125-3.3935546875t3.2958984375-1.0986328125q1.416015625,0,2.6611328125,0.5859375t1.2451171875,2.490234375q0.1953125,2.783203125,0.1953125,5.8349609375t0.537109375,5.7861328125q1.220703125-2.001953125,2.7587890625-4.00390625t3.3935546875-3.564453125t4.052734375-2.5146484375t4.78515625-0.9521484375q3.515625,0,5.95703125,1.46484375t4.0283203125,3.80859375t2.294921875,5.2978515625t0.7080078125,5.9326171875q0,4.58984375-1.3916015625,7.4951171875t-3.6865234375,4.5654296875t-5.2001953125,2.24609375t-5.8349609375,0.5859375q-2.587890625,0-4.833984375-1.0009765625t-3.125-3.7841796875q0-0.78125,1.1474609375-0.9765625t1.6357421875-0.1953125q1.611328125,0,2.392578125,0.87890625q0.5859375,0.68359375,1.2939453125,1.3916015625t1.4892578125,0.7080078125q1.513671875,0,3.173828125-0.8544921875t3.0517578125-2.24609375t2.34375-3.2958984375t0.9521484375-3.90625q0-1.708984375-0.29296875-4.248046875t-1.0009765625-4.8828125t-1.953125-4.052734375t-3.1494140625-1.708984375q-2.880859375,0-5.2001953125,2.63671875t-3.857421875,6.34765625t-2.392578125,7.71484375t-0.8544921875,6.689453125t0.341796875,6.787109375t0.7080078125,8.5205078125t0.7080078125,8.5205078125t0.341796875,6.787109375q0,0.68359375-0.5615234375,1.0986328125t-1.3427734375,0.6591796875t-1.5869140625,0.29296875t-1.1962890625,0.048828125q-1.318359375,0-2.7587890625-0.29296875t-1.9775390625-1.806640625q-0.68359375-2.392578125-1.26953125-6.8115234375t-1.0498046875-9.765625t-0.8056640625-11.23046875t-0.5859375-11.3525390625t-0.3662109375-10.009765625t-0.1220703125-7.2265625z M120.80126953125,114.111328125q0-2.294921875,0.9033203125-3.3935546875t3.2958984375-1.0986328125q1.416015625,0,2.6611328125,0.5859375t1.2451171875,2.490234375q0.1953125,2.783203125,0.1953125,5.8349609375t0.537109375,5.7861328125q1.220703125-2.001953125,2.7587890625-4.00390625t3.3935546875-3.564453125t4.052734375-2.5146484375t4.78515625-0.9521484375q3.515625,0,5.95703125,1.46484375t4.0283203125,3.80859375t2.294921875,5.2978515625t0.7080078125,5.9326171875q0,4.58984375-1.3916015625,7.4951171875t-3.6865234375,4.5654296875t-5.2001953125,2.24609375t-5.8349609375,0.5859375q-2.587890625,0-4.833984375-1.0009765625t-3.125-3.7841796875q0-0.78125,1.1474609375-0.9765625t1.6357421875-0.1953125q1.611328125,0,2.392578125,0.87890625q0.5859375,0.68359375,1.2939453125,1.3916015625t1.4892578125,0.7080078125q1.513671875,0,3.173828125-0.8544921875t3.0517578125-2.24609375t2.34375-3.2958984375t0.9521484375-3.90625q0-1.708984375-0.29296875-4.248046875t-1.0009765625-4.8828125t-1.953125-4.052734375t-3.1494140625-1.708984375q-2.880859375,0-5.2001953125,2.63671875t-3.857421875,6.34765625t-2.392578125,7.71484375t-0.8544921875,6.689453125t0.341796875,6.787109375t0.7080078125,8.5205078125t0.7080078125,8.5205078125t0.341796875,6.787109375q0,0.68359375-0.5615234375,1.0986328125t-1.3427734375,0.6591796875t-1.5869140625,0.29296875t-1.1962890625,0.048828125q-1.318359375,0-2.7587890625-0.29296875t-1.9775390625-1.806640625q-0.68359375-2.392578125-1.26953125-6.8115234375t-1.0498046875-9.765625t-0.8056640625-11.23046875t-0.5859375-11.3525390625t-0.3662109375-10.009765625t-0.1220703125-7.2265625z M167.611328125,115.478515625q0-2.880859375,0.3173828125-6.982421875t1.171875-8.544921875t2.294921875-8.837890625t3.6865234375-7.763671875t5.37109375-5.322265625q2.587890625-1.611328125,5.95703125-1.611328125q0.68359375,0,1.416015625,0.09765625q8.49609375,0.78125,13.0615234375,3.8818359375t6.6650390625,7.861328125t2.44140625,10.83984375t0.341796875,12.8173828125q0,5.419921875-1.0009765625,11.7919921875t-3.5400390625,11.8896484375t-7.0068359375,9.2041015625t-11.3525390625,3.6865234375q-4.19921875,0-7.3486328125-1.5380859375t-5.3466796875-4.1015625t-3.61328125-5.95703125t-2.1484375-7.03125t-1.0498046875-7.3486328125t-0.3173828125-7.03125z M177.5234375,113.28125q0,2.099609375,0.048828125,5.1513671875t0.4150390625,6.4208984375t0.9521484375,6.7138671875t1.7333984375,6.0791015625t2.9052734375,4.4921875t4.248046875,1.85546875l0.244140625,0q2.24609375,0,4.00390625-1.708984375q1.85546875-1.806640625,3.2958984375-4.345703125t2.490234375-5.3466796875t1.8798828125-4.8095703125l-0.1953125,0.439453125q1.416015625-4.4921875,1.904296875-9.2041015625t0.48828125-9.3017578125q0-2.197265625-0.29296875-5.2978515625t-0.9521484375-6.4697265625t-1.708984375-6.6650390625t-2.6611328125-5.7373046875t-3.759765625-3.7109375q-1.5625-0.927734375-3.466796875-0.9765625q-0.732421875,0-1.46484375,0.146484375q-2.490234375,0.48828125-4.248046875,2.44140625t-2.8564453125,4.8095703125t-1.6845703125,6.25t-0.9033203125,6.8359375t-0.3662109375,6.591796875t-0.048828125,5.3466796875z M199.544921875,128.3203125l0-0.09765625l0,0.09765625z M220.47607421875,132.03125l0-1.416015625q0-1.7578125,0.09765625-3.3203125q0.09765625-2.197265625,0.09765625-3.61328125q0-0.78125,0.09765625-1.7822265625t0.48828125-1.5869140625q0.48828125-0.48828125,1.1474609375-1.0009765625t1.4404296875-0.5126953125q2.490234375,0,3.90625,0.5615234375t1.513671875,2.3193359375l0.1953125,1.513671875q0.87890625-2.099609375,2.34375-5.2001953125t3.3935546875-5.908203125t4.345703125-4.78515625t5.1025390625-1.9775390625q2.490234375,0,4.1015625,2.34375t2.5634765625,5.9814453125t1.3427734375,8.10546875t0.537109375,8.7646484375t0.1953125,7.8369140625t0.341796875,5.3466796875q0.1953125,1.513671875,0.6591796875,3.1982421875t0.4638671875,3.1005859375q0,0.390625-0.5615234375,0.7568359375t-1.1962890625,0.6103515625t-1.2939453125,0.390625t-0.9521484375,0.146484375q-1.904296875,0-2.7099609375-2.8564453125t-1.0009765625-7.1533203125t-0.1953125-9.3017578125t-0.341796875-9.3017578125t-1.3916015625-7.1533203125t-3.3447265625-2.9541015625q-2.099609375,0-4.345703125,2.7099609375t-3.857421875,7.2021484375q-1.5625,4.4921875-2.1484375,10.205078125q-0.1953125,1.806640625-0.1953125,3.61328125q0,3.955078125,0.830078125,7.91015625q0.09765625,0.68359375-0.5615234375,1.025390625t-1.6357421875,0.537109375t-1.9775390625,0.244140625t-1.5380859375,0.048828125q-1.904296875,0-3.0517578125-1.3427734375t-1.7822265625-3.4423828125t-0.8544921875-4.7119140625t-0.2685546875-5.1513671875z M264.8447265625,149.12109375q0-1.416015625,0.1220703125-2.978515625t0.2197265625-2.9296875l0.29296875-7.32421875q0.48828125-8.7890625,1.1962890625-17.28515625t1.1962890625-17.1875q0.29296875-4.78515625,0.439453125-9.3994140625t0.439453125-9.3994140625q-0.1953125-0.390625-0.1953125-0.537109375q0-0.68359375,0.5126953125-1.07421875t1.1962890625-0.6591796875t1.4404296875-0.3662109375t1.1474609375-0.09765625l1.123046875,0q1.513671875,0.1953125,2.197265625,0.9521484375t0.87890625,1.806640625t0.09765625,2.24609375t-0.09765625,2.2216796875q0,7.080078125-0.341796875,14.4287109375t-0.78125,14.74609375t-0.8056640625,14.794921875t-0.3662109375,14.6240234375l0,3.41796875q0,2.294921875-1.2939453125,3.02734375t-3.5888671875,0.732421875q-2.001953125,0-3.515625-0.87890625t-1.513671875-2.880859375z M287.24072265625,130.615234375q0-4.4921875,1.0498046875-8.8134765625t1.7822265625-8.6181640625q0.1953125-1.123046875,1.5380859375-1.3916015625t2.2705078125-0.2685546875q1.611328125,0,2.587890625,0.48828125q0.390625,0.1953125,0.732421875,0.439453125t0.341796875,0.634765625q0,4.19921875-1.0009765625,8.203125t-1.0009765625,8.49609375q0,1.513671875,0.2197265625,2.8564453125t0.4150390625,2.6611328125l0.29296875,1.416015625q0,0.390625,0.048828125,0.68359375t0.146484375,0.68359375q0,0.87890625-1.2451171875,1.1962890625t-2.1728515625,0.3173828125q-1.416015625,0-2.6123046875-0.5615234375t-1.8798828125-1.9287109375l-0.68359375-1.416015625q-0.5859375-1.123046875-0.5859375-2.5146484375t-0.244140625-2.5634765625z M290.36572265625,101.220703125l0-0.927734375q0-2.294921875,1.1474609375-4.1015625t3.4423828125-1.806640625q0.29296875,0,0.5615234375,0.048828125t0.5615234375,0.048828125q0.5859375,0.09765625,1.5380859375,0.4638671875t0.9521484375,1.1474609375l0,0.09765625q-0.1953125,0.390625-0.244140625,0.8056640625t-0.244140625,0.7080078125l0.09765625-0.09765625q-0.5859375,1.513671875-0.9521484375,2.44140625t-0.8056640625,1.4892578125t-1.0986328125,0.8056640625t-1.8798828125,0.244140625q-0.1953125,0-0.68359375-0.048828125t-1.0498046875-0.1953125t-0.9521484375-0.390625t-0.390625-0.732421875z M308.611328125,132.03125l0-1.416015625q0-1.7578125,0.09765625-3.3203125q0.09765625-2.197265625,0.09765625-3.61328125q0-0.78125,0.09765625-1.7822265625t0.48828125-1.5869140625q0.48828125-0.48828125,1.1474609375-1.0009765625t1.4404296875-0.5126953125q2.490234375,0,3.90625,0.5615234375t1.513671875,2.3193359375l0.1953125,1.513671875q0.87890625-2.099609375,2.34375-5.2001953125t3.3935546875-5.908203125t4.345703125-4.78515625t5.1025390625-1.9775390625q2.490234375,0,4.1015625,2.34375t2.5634765625,5.9814453125t1.3427734375,8.10546875t0.537109375,8.7646484375t0.1953125,7.8369140625t0.341796875,5.3466796875q0.1953125,1.513671875,0.6591796875,3.1982421875t0.4638671875,3.1005859375q0,0.390625-0.5615234375,0.7568359375t-1.1962890625,0.6103515625t-1.2939453125,0.390625t-0.9521484375,0.146484375q-1.904296875,0-2.7099609375-2.8564453125t-1.0009765625-7.1533203125t-0.1953125-9.3017578125t-0.341796875-9.3017578125t-1.3916015625-7.1533203125t-3.3447265625-2.9541015625q-2.099609375,0-4.345703125,2.7099609375t-3.857421875,7.2021484375q-1.5625,4.4921875-2.1484375,10.205078125q-0.1953125,1.806640625-0.1953125,3.61328125q0,3.955078125,0.830078125,7.91015625q0.09765625,0.68359375-0.5615234375,1.025390625t-1.6357421875,0.537109375t-1.9775390625,0.244140625t-1.5380859375,0.048828125q-1.904296875,0-3.0517578125-1.3427734375t-1.7822265625-3.4423828125t-0.8544921875-4.7119140625t-0.2685546875-5.1513671875z M352.97998046875,133.7890625q0-3.41796875,0.7568359375-8.056640625t2.5634765625-8.7890625t4.7607421875-7.0556640625t7.4462890625-2.9052734375q4.19921875,0,6.298828125,2.4169921875t2.099609375,6.5185546875q0,2.685546875-1.0009765625,5.8837890625t-2.8564453125,6.0546875t-4.39453125,4.7607421875t-5.6640625,1.904296875l-1.26953125-0.09765625q0,1.318359375,0.390625,3.5400390625t1.1474609375,4.4189453125t1.953125,3.857421875t2.9052734375,1.66015625q2.490234375,0,4.78515625-2.001953125t4.345703125-4.443359375t3.80859375-4.443359375t3.22265625-2.001953125q0.78125,0,1.611328125,0.244140625t0.927734375,1.3671875q0,0.68359375-0.3662109375,1.123046875t-0.6591796875,0.9765625q-1.513671875,2.587890625-3.2958984375,4.931640625t-4.0283203125,4.248046875t-4.9072265625,3.0029296875t-5.8837890625,1.0986328125q-4.19921875,0-6.982421875-1.4892578125t-4.4921875-4.00390625t-2.4658203125-5.810546875t-0.7568359375-6.9091796875z M361.72021484375,130.078125l1.3671875,1.220703125q0.9765625,0.87890625,1.953125,0.390625t1.7578125-1.7822265625t1.4404296875-3.1982421875t1.171875-3.90625t0.7568359375-3.90625t0.244140625-3.173828125l0-1.66015625t-0.146484375-1.7578125t-0.5126953125-1.3916015625t-1.1474609375-0.7080078125q-0.244140625-0.048828125-0.439453125-0.048828125q-1.66015625,0-2.83203125,2.099609375q-1.26953125,2.34375-2.05078125,5.6884765625t-1.123046875,6.8603515625t-0.439453125,5.2734375z"/><path fill="#" d=""/></svg>
